<svg id="Layer_1" data-name="Layer 1" xmlns="http://www.w3.org/2000/svg" viewBox="0 0 637.4 498.86"><defs><style>.cls-1{fill:#fff;}.cls-2,.cls-7{fill:#2d4a9f;}.cls-3{fill:#f15c54;}.cls-4{fill:#a89033;}.cls-5{fill:#5bba47;}.cls-13,.cls-17,.cls-23,.cls-25,.cls-6,.cls-9{fill:#1e1f36;}.cls-23,.cls-25,.cls-7{font-size:17px;font-family:Arial-BoldMT, Arial;font-weight:700;}.cls-7{letter-spacing:0.2em;}.cls-13,.cls-17,.cls-22,.cls-8{font-size:21px;letter-spacing:0.2em;}.cls-11,.cls-12,.cls-13,.cls-18,.cls-19,.cls-20,.cls-22,.cls-9{font-family:ArialMT, Arial;}.cls-11,.cls-12,.cls-13,.cls-17,.cls-9{font-weight:400;}.cls-10,.cls-18{fill:#b13e97;}.cls-10{letter-spacing:0.2em;}.cls-12,.cls-15,.cls-20{fill:#dc3333;}.cls-14,.cls-15,.cls-16,.cls-17{font-family:ArialNarrow-Italic, Arial;font-style:italic;}.cls-16{letter-spacing:0.2em;}.cls-18,.cls-19,.cls-20{font-style:normal;}.cls-21{fill:#c499c6;}.cls-22{fill:#231f20;}.cls-24,.cls-25{letter-spacing:0.2em;}.cls-26,.cls-27,.cls-28{fill:none;stroke-miterlimit:10;}.cls-26,.cls-27{stroke:#1e1f36;}.cls-26,.cls-28{stroke-width:3px;}.cls-28{stroke:#2d4a9f;}</style></defs><rect class="cls-1" y="22.91" width="637.4" height="475.95"/><path class="cls-2" d="M17.72,0h602A17.72,17.72,0,0,1,637.4,17.72v6.61a0,0,0,0,1,0,0H0a0,0,0,0,1,0,0V17.72A17.72,17.72,0,0,1,17.72,0Z"/><circle class="cls-3" cx="17.04" cy="12.16" r="5.99"/><circle class="cls-4" cx="36.74" cy="12.16" r="5.99"/><circle class="cls-5" cx="56.87" cy="12.16" r="5.99"/><path class="cls-6" d="M68.58,363.74v-10a2.67,2.67,0,0,1,4-2.32l8.68,5,8.67,5a2.68,2.68,0,0,1,0,4.64l-8.67,5-8.68,5a2.67,2.67,0,0,1-4-2.32Z"/><path class="cls-6" d="M55.88,267.61h10a2.68,2.68,0,0,1,2.32,4l-5,8.67-5,8.68a2.68,2.68,0,0,1-4.64,0l-5-8.68-5-8.67a2.68,2.68,0,0,1,2.32-4Z"/><text class="cls-7" transform="translate(-35.49 112.73)"><tspan xml:space="preserve">                      </tspan><tspan class="cls-8"><tspan x="0" y="43" xml:space="preserve">    </tspan><tspan class="cls-6" x="40.14" y="43"> </tspan><tspan class="cls-9" x="50.17" y="43">&gt;</tspan><tspan x="66.64" y="43"> </tspan><tspan class="cls-10" x="76.67" y="43">const</tspan><tspan class="cls-6" x="153.68" y="43"> </tspan><tspan class="cls-11" x="163.71" y="43">dog</tspan><tspan class="cls-9" x="211.35" y="43" xml:space="preserve"> = { name: </tspan><tspan class="cls-12" x="358.53" y="43">“Lupu”</tspan><tspan class="cls-9" x="444.44" y="43" xml:space="preserve"> }</tspan></tspan><tspan class="cls-13"><tspan x="0" y="86" xml:space="preserve">     &lt; undefined</tspan><tspan x="0" y="129" xml:space="preserve">     &gt; dog</tspan><tspan x="0" y="172" xml:space="preserve">     &lt;     </tspan><tspan class="cls-14" x="116.81" y="172">{name:</tspan><tspan class="cls-15" x="195.63" y="172">”Lupu”</tspan><tspan class="cls-16" x="270.6" y="172">}</tspan></tspan><tspan class="cls-17"><tspan x="0" y="215" xml:space="preserve">                </tspan><tspan class="cls-18" x="143.82" y="215">name</tspan><tspan class="cls-19" x="213.15" y="215">:”</tspan><tspan class="cls-20" x="234.38" y="215">Lupu</tspan><tspan class="cls-19" x="297.89" y="215">”</tspan></tspan><tspan class="cls-13"><tspan x="0" y="258" xml:space="preserve">              </tspan><tspan class="cls-21" x="140.48" y="258">__proto__</tspan><tspan x="272.87" y="258">:Object</tspan><tspan x="0" y="301" xml:space="preserve">     </tspan><tspan class="cls-2" x="50.17" y="301">&gt;</tspan></tspan></text><rect class="cls-2" x="249.97" y="263.71" width="30.51" height="30.51" rx="8.73"/><path class="cls-1" d="M267.8,282.65a5.61,5.61,0,0,1-3.68,2.31c-.69,0-1.07-.63-.73-2.1.4-1.68.88-3.48,1.2-4.89.14-.61.12-.8-.07-.8a2.8,2.8,0,0,0-1.15.69l-.32-.67a6.58,6.58,0,0,1,3.68-2.05c.71,0,.88.65.42,2.6-.32,1.3-.78,3.11-1.09,4.41-.15.52-.15.82,0,.82a3.24,3.24,0,0,0,1.36-1Zm.36-10.5a1.6,1.6,0,0,1-1.56,1.64,1.21,1.21,0,0,1-1.28-1.3,1.64,1.64,0,0,1,1.64-1.62A1.16,1.16,0,0,1,268.16,272.15Z"/><text class="cls-22" transform="translate(25.79 192.82)">.</text><text class="cls-22" transform="translate(25.79 278.75)">.</text><text class="cls-23" transform="translate(158.96 59.31)">ELEMENTS</text><text class="cls-23" transform="translate(505.11 113.16)">Filte<tspan class="cls-24" x="34.94" y="0">r</tspan></text><text class="cls-25" transform="translate(139.64 113.16)">top</text><text class="cls-23" transform="translate(300.79 59.3)">CONSOLE</text><path class="cls-6" d="M384,94.88h10a2.68,2.68,0,0,1,2.32,4l-5,8.67-5,8.68a2.68,2.68,0,0,1-4.64,0l-5-8.68-5-8.67a2.68,2.68,0,0,1,2.32-4Z"/><path class="cls-6" d="M27.63,108v-5a1.34,1.34,0,0,1,2-1.16L34,104.32l4.34,2.5a1.34,1.34,0,0,1,0,2.32L34,111.65l-4.33,2.5a1.34,1.34,0,0,1-2-1.16Z"/><circle class="cls-6" cx="606.13" cy="44.67" r="4.25"/><circle class="cls-6" cx="606.13" cy="54.59" r="4.25"/><circle class="cls-6" cx="606.13" cy="64.51" r="4.25"/><line class="cls-26" y1="81.05" x2="637.4" y2="81.05"/><line class="cls-26" y1="131.42" x2="637.4" y2="131.42"/><line class="cls-26" x1="121.21" y1="35.21" x2="121.21" y2="73.51"/><line class="cls-27" x1="33.39" y1="56.83" x2="42.11" y2="65.54"/><polygon class="cls-6" points="30.9 61.39 28.32 51.76 37.95 54.34 30.9 61.39"/><line class="cls-26" x1="121.21" y1="87.75" x2="121.21" y2="126.05"/><line class="cls-26" x1="76.95" y1="98.36" x2="94.84" y2="116.26"/><line class="cls-26" x1="23.41" y1="94.24" x2="23.41" y2="120.08"/><line class="cls-26" x1="406.66" y1="87.75" x2="406.66" y2="126.05"/><line class="cls-26" x1="478.66" y1="87.75" x2="478.66" y2="126.05"/><line class="cls-26" x1="569.37" y1="87.75" x2="569.37" y2="126.05"/><line class="cls-26" x1="569.37" y1="35.21" x2="569.37" y2="73.51"/><line class="cls-28" x1="285.59" y1="81.05" x2="400.04" y2="81.05"/><rect class="cls-26" x="15.19" y="95.27" width="28.63" height="23.95"/><polyline class="cls-26" points="426.22 46.52 433.59 54.13 426.22 61.12"/><polyline class="cls-26" points="434.72 46.83 442.09 54.43 434.72 61.42"/><circle class="cls-26" cx="85.83" cy="107.25" r="11.98"/><polyline class="cls-26" points="40.56 49.21 40.56 41.56 19.44 41.56 19.44 66.93 26.53 66.93"/><polyline class="cls-26" points="75.85 48.85 75.85 37.87 97.81 37.87 97.81 69.48 68.77 69.48 68.77 48.93 82.37 48.79 82.84 69.93"/><path class="cls-6" d="M457.41,104.83c-10.09-11.43-20-12-29.6,0a3.33,3.33,0,0,0,.06,4.23q14.79,17.31,29.57.1A3.32,3.32,0,0,0,457.41,104.83Zm-14.75,9a6.95,6.95,0,1,1,6.94-6.95A6.95,6.95,0,0,1,442.66,113.85Z"/><circle class="cls-6" cx="442.66" cy="106.9" r="3.5"/><path class="cls-6" d="M615.94,96.53c-3.22,1.14-6.61-.91-6.55-3.69,0-2.51-7.65-2.44-7.7-.5-.15,6-4.79,2.22-7.3,4.19-5.68,4.45,5.13,6.53-2.91,12.86-2.05,1.61,1.43,6.9,3,6.41,5.55-1.7,6.66,1.4,6.66,3.72,0,2.48,8.29,2.91,8.24.07-.09-5.15,3-5.41,7.52-4.79,1.4.19,2.15-1.69,2.7-3.71a1.1,1.1,0,0,0-.3-1.06c-1.77-1.77-2.77-6.17.37-7.8C621.39,101.34,618.68,95.56,615.94,96.53Zm-10.51,15.91a6.11,6.11,0,1,1,6.11-6.11A6.12,6.12,0,0,1,605.43,112.44Z"/></svg>