<svg id="Layer_1" data-name="Layer 1" xmlns="http://www.w3.org/2000/svg" viewBox="0 0 411.92 169.25"><defs><style>.cls-1{fill:#fff;}.cls-2{font-size:17px;font-family:Arial-BoldMT, Arial;font-weight:700;letter-spacing:0.2em;}.cls-10,.cls-2{fill:#2d4a9f;}.cls-3,.cls-6,.cls-8,.cls-9{fill:#1e1f36;}.cls-3,.cls-4{font-size:21px;letter-spacing:0.2em;}.cls-5{fill:#c499c6;}.cls-7,.cls-9{font-family:Arial-BoldItalicMT, Arial;font-style:italic;}.cls-8{letter-spacing:0.2em;}</style></defs><rect class="cls-1" width="411.92" height="169.25"/><text class="cls-2" transform="translate(43.28 43.74)"><tspan xml:space="preserve">  </tspan><tspan class="cls-3" x="16.25" y="0">Object</tspan><tspan class="cls-4"><tspan x="0" y="43" xml:space="preserve">     </tspan><tspan class="cls-5" x="50.17" y="43">constructor</tspan><tspan class="cls-6" x="213.05" y="43">:</tspan><tspan class="cls-7" x="224.24" y="43">f</tspan><tspan x="235.44" y="43" xml:space="preserve">  </tspan><tspan class="cls-8" x="255.51" y="43">test</tspan><tspan class="cls-9" x="309.65" y="43">()</tspan><tspan x="0" y="86" xml:space="preserve">     </tspan><tspan class="cls-5" x="50.17" y="86">__proto__</tspan><tspan class="cls-6" x="188.34" y="86">:Object</tspan></tspan></text><path class="cls-6" d="M62.15,82.69v-10a2.67,2.67,0,0,1,4-2.32l8.68,5,8.67,5a2.68,2.68,0,0,1,0,4.64l-8.67,5-8.68,5a2.67,2.67,0,0,1-4-2.32Z"/><path class="cls-6" d="M34.57,25.08h10a2.67,2.67,0,0,1,2.32,4l-5,8.68-5,8.68a2.68,2.68,0,0,1-4.64,0l-5-8.68-5-8.68a2.67,2.67,0,0,1,2.32-4Z"/><path class="cls-6" d="M62.15,123.13v-10a2.67,2.67,0,0,1,4-2.32l8.68,5,8.67,5a2.68,2.68,0,0,1,0,4.64l-8.67,5-8.68,5a2.67,2.67,0,0,1-4-2.32Z"/><rect class="cls-10" x="161.63" y="21.17" width="30.51" height="30.51" rx="8.73"/><path class="cls-1" d="M179.46,40.12a5.7,5.7,0,0,1-3.68,2.31c-.69,0-1.07-.63-.73-2.1.4-1.68.88-3.49,1.2-4.89.14-.61.12-.8-.07-.8a2.69,2.69,0,0,0-1.15.69l-.32-.67a6.55,6.55,0,0,1,3.68-2.06c.71,0,.88.65.42,2.6-.32,1.31-.78,3.11-1.1,4.41-.14.53-.14.82,0,.82a3.17,3.17,0,0,0,1.36-1Zm.35-10.5a1.6,1.6,0,0,1-1.55,1.64A1.21,1.21,0,0,1,177,30a1.63,1.63,0,0,1,1.64-1.62A1.15,1.15,0,0,1,179.81,29.62Z"/></svg>