<svg xmlns="http://www.w3.org/2000/svg" viewBox="0 0 840.94 111.47"><defs><style>.cls-1{isolation:isolate;}.cls-2,.cls-3{fill:#15a84f;}.cls-3{mix-blend-mode:multiply;}.cls-4{font-size:36px;fill:#fff;font-family:Arial-Black, Arial;font-weight:800;}.cls-5,.cls-6{fill:#1e1f36;}.cls-6{font-family:ArialMT, Arial;font-weight:400;}.cls-7{letter-spacing:0.03em;}.cls-8{letter-spacing:-0.02em;}</style></defs><g class="cls-1"><g id="Layer_1" data-name="Layer 1"><rect class="cls-2" width="840.94" height="111.47"/><path class="cls-3" d="M36.63,30.73H111a0,0,0,0,1,0,0v37a13,13,0,0,1-13,13H23.68a0,0,0,0,1,0,0v-37a13,13,0,0,1,13-13Z"/><path class="cls-3" d="M558.19,30.73H708.24a0,0,0,0,1,0,0v35a15,15,0,0,1-15,15H543.16a0,0,0,0,1,0,0v-35A15,15,0,0,1,558.19,30.73Z"/><text class="cls-4" transform="translate(30.57 68.33)">this<tspan class="cls-5" x="73.97" y="0"> </tspan><tspan class="cls-6" x="85.97" y="0">used globally indicates the </tspan><tspan class="cls-7" x="518.26" y="0">W</tspan><tspan x="555.45" y="0">ind</tspan><tspan class="cls-8" x="615.46" y="0">o</tspan><tspan x="638.82" y="0">w</tspan><tspan class="cls-6" x="672.8" y="0" xml:space="preserve"> object</tspan></text></g></g></svg>