<svg xmlns="http://www.w3.org/2000/svg" viewBox="0 0 840.94 111.47"><defs><style>.cls-1{isolation:isolate;}.cls-2,.cls-3{fill:#15a84f;}.cls-3{mix-blend-mode:multiply;}.cls-4{font-size:36px;fill:#fff;font-family:Arial-Black, Arial;font-weight:800;}.cls-5,.cls-6{fill:#1e1f36;}.cls-6{font-family:ArialMT, Arial;font-weight:400;}.cls-7{letter-spacing:0.03em;}.cls-8{letter-spacing:-0.02em;}</style></defs><g class="cls-1"><g id="Layer_1" data-name="Layer 1"><rect class="cls-2" width="840.94" height="111.47"/><path class="cls-3" d="M32.1,30.73h69.82a0,0,0,0,1,0,0v37a13,13,0,0,1-13,13H19.14a0,0,0,0,1,0,0v-37A13,13,0,0,1,32.1,30.73Z"/><path class="cls-3" d="M669.51,30.73H819.56a0,0,0,0,1,0,0v35a15,15,0,0,1-15,15H654.48a0,0,0,0,1,0,0v-35A15,15,0,0,1,669.51,30.73Z"/><text class="cls-4" transform="translate(24.56 67.02)">this<tspan class="cls-5" x="73.97" y="0"> </tspan><tspan class="cls-6" x="85.97" y="0">used in the function also indicates </tspan><tspan class="cls-7" x="636.33" y="0">W</tspan><tspan x="673.52" y="0">ind</tspan><tspan class="cls-8" x="733.53" y="0">o</tspan><tspan x="756.9" y="0">w</tspan><tspan class="cls-6" x="790.87" y="0"> </tspan></text></g></g></svg>